<svg xmlns="http://www.w3.org/2000/svg" width="880" height="638" viewBox="0 0 880 638" role="img" font-family="system-ui, -apple-system, 'Segoe UI', sans-serif">
  <text x="8" y="17" font-size="12" fill="#52514e">RNS 1.5.4 peak RSS as a multiple of Prns · higher means Prns uses less memory</text>
  <line x1="436.5" y1="34.0" x2="436.5" y2="616.0" stroke="#c3c2b7" stroke-width="1"/>
  <text x="436.5" y="632.0" font-size="11" fill="#898781" text-anchor="middle" font-variant-numeric="tabular-nums">1×</text>
  <line x1="502.3" y1="34.0" x2="502.3" y2="616.0" stroke="#e1e0d9" stroke-width="1"/>
  <text x="502.3" y="632.0" font-size="11" fill="#898781" text-anchor="middle" font-variant-numeric="tabular-nums">5×</text>
  <line x1="584.6" y1="34.0" x2="584.6" y2="616.0" stroke="#e1e0d9" stroke-width="1"/>
  <text x="584.6" y="632.0" font-size="11" fill="#898781" text-anchor="middle" font-variant-numeric="tabular-nums">10×</text>
  <line x1="667.0" y1="34.0" x2="667.0" y2="616.0" stroke="#e1e0d9" stroke-width="1"/>
  <text x="667.0" y="632.0" font-size="11" fill="#898781" text-anchor="middle" font-variant-numeric="tabular-nums">15×</text>
  <line x1="749.3" y1="34.0" x2="749.3" y2="616.0" stroke="#e1e0d9" stroke-width="1"/>
  <text x="749.3" y="632.0" font-size="11" fill="#898781" text-anchor="middle" font-variant-numeric="tabular-nums">20×</text>
  <line x1="420.0" y1="34.0" x2="420.0" y2="616.0" stroke="#c3c2b7" stroke-width="1"/>
  <text x="410.0" y="55.5" font-size="13" fill="#52514e" text-anchor="end">Single-packet throughput · initiator</text>
  <path d="M420.0,41.0 L534.7,41.0 Q538.7,41.0 538.7,45.0 L538.7,57.0 Q538.7,61.0 534.7,61.0 L420.0,61.0 Z" fill="#2a78d6"/>
  <text x="546.7" y="55.5" font-size="12.5" font-weight="600" fill="#0b0b0b">7.21×</text>
  <text x="410.0" y="89.5" font-size="13" fill="#52514e" text-anchor="end">Single-packet throughput · responder</text>
  <path d="M420.0,75.0 L432.4,75.0 Q436.4,75.0 436.4,79.0 L436.4,91.0 Q436.4,95.0 432.4,95.0 L420.0,95.0 Z" fill="#2a78d6"/>
  <text x="444.4" y="89.5" font-size="12.5" font-weight="600" fill="#0b0b0b">0.99×</text>
  <text x="410.0" y="123.5" font-size="13" fill="#52514e" text-anchor="end">Link-message throughput · initiator</text>
  <path d="M420.0,109.0 L689.3,109.0 Q693.3,109.0 693.3,113.0 L693.3,125.0 Q693.3,129.0 689.3,129.0 L420.0,129.0 Z" fill="#2a78d6"/>
  <text x="701.3" y="123.5" font-size="12.5" font-weight="600" fill="#0b0b0b">16.60×</text>
  <text x="410.0" y="157.5" font-size="13" fill="#52514e" text-anchor="end">Link-message throughput · responder</text>
  <path d="M420.0,143.0 L449.6,143.0 Q453.6,143.0 453.6,147.0 L453.6,159.0 Q453.6,163.0 449.6,163.0 L420.0,163.0 Z" fill="#2a78d6"/>
  <text x="461.6" y="157.5" font-size="12.5" font-weight="600" fill="#0b0b0b">2.04×</text>
  <text x="410.0" y="191.5" font-size="13" fill="#52514e" text-anchor="end">Request/response · initiator</text>
  <path d="M420.0,177.0 L452.8,177.0 Q456.8,177.0 456.8,181.0 L456.8,193.0 Q456.8,197.0 452.8,197.0 L420.0,197.0 Z" fill="#2a78d6"/>
  <text x="464.8" y="191.5" font-size="12.5" font-weight="600" fill="#0b0b0b">2.23×</text>
  <text x="410.0" y="225.5" font-size="13" fill="#52514e" text-anchor="end">Request/response · responder</text>
  <path d="M420.0,211.0 L492.3,211.0 Q496.3,211.0 496.3,215.0 L496.3,227.0 Q496.3,231.0 492.3,231.0 L420.0,231.0 Z" fill="#2a78d6"/>
  <text x="504.3" y="225.5" font-size="12.5" font-weight="600" fill="#0b0b0b">4.63×</text>
  <text x="410.0" y="259.5" font-size="13" fill="#52514e" text-anchor="end">Maximum resource segment · initiator</text>
  <path d="M420.0,245.0 L777.6,245.0 Q781.6,245.0 781.6,249.0 L781.6,261.0 Q781.6,265.0 777.6,265.0 L420.0,265.0 Z" fill="#2a78d6"/>
  <text x="789.6" y="259.5" font-size="12.5" font-weight="600" fill="#0b0b0b">21.96×</text>
  <text x="410.0" y="293.5" font-size="13" fill="#52514e" text-anchor="end">Maximum resource segment · responder</text>
  <path d="M420.0,279.0 L546.9,279.0 Q550.9,279.0 550.9,283.0 L550.9,295.0 Q550.9,299.0 546.9,299.0 L420.0,299.0 Z" fill="#2a78d6"/>
  <text x="558.9" y="293.5" font-size="12.5" font-weight="600" fill="#0b0b0b">7.95×</text>
  <text x="410.0" y="327.5" font-size="13" fill="#52514e" text-anchor="end">Maximum resource segment · matched RNS policy · initiator</text>
  <path d="M420.0,313.0 L814.0,313.0 Q818.0,313.0 818.0,317.0 L818.0,329.0 Q818.0,333.0 814.0,333.0 L420.0,333.0 Z" fill="#2a78d6"/>
  <text x="826.0" y="327.5" font-size="12.5" font-weight="600" fill="#0b0b0b">24.17×</text>
  <text x="410.0" y="361.5" font-size="13" fill="#52514e" text-anchor="end">Maximum resource segment · matched RNS policy · responder</text>
  <path d="M420.0,347.0 L580.3,347.0 Q584.3,347.0 584.3,351.0 L584.3,363.0 Q584.3,367.0 580.3,367.0 L420.0,367.0 Z" fill="#2a78d6"/>
  <text x="592.3" y="361.5" font-size="12.5" font-weight="600" fill="#0b0b0b">9.98×</text>
  <text x="410.0" y="395.5" font-size="13" fill="#52514e" text-anchor="end">64-segment resource stream · initiator</text>
  <path d="M420.0,381.0 L565.9,381.0 Q569.9,381.0 569.9,385.0 L569.9,397.0 Q569.9,401.0 565.9,401.0 L420.0,401.0 Z" fill="#2a78d6"/>
  <text x="577.9" y="395.5" font-size="12.5" font-weight="600" fill="#0b0b0b">9.11×</text>
  <text x="410.0" y="429.5" font-size="13" fill="#52514e" text-anchor="end">64-segment resource stream · responder</text>
  <path d="M420.0,415.0 L691.3,415.0 Q695.3,415.0 695.3,419.0 L695.3,431.0 Q695.3,435.0 691.3,435.0 L420.0,435.0 Z" fill="#2a78d6"/>
  <text x="703.3" y="429.5" font-size="12.5" font-weight="600" fill="#0b0b0b">16.72×</text>
  <text x="410.0" y="463.5" font-size="13" fill="#52514e" text-anchor="end">64-segment resource stream · matched RNS policy · initiator</text>
  <path d="M420.0,449.0 L590.9,449.0 Q594.9,449.0 594.9,453.0 L594.9,465.0 Q594.9,469.0 590.9,469.0 L420.0,469.0 Z" fill="#2a78d6"/>
  <text x="602.9" y="463.5" font-size="12.5" font-weight="600" fill="#0b0b0b">10.62×</text>
  <text x="410.0" y="497.5" font-size="13" fill="#52514e" text-anchor="end">64-segment resource stream · matched RNS policy · responder</text>
  <path d="M420.0,483.0 L733.9,483.0 Q737.9,483.0 737.9,487.0 L737.9,499.0 Q737.9,503.0 733.9,503.0 L420.0,503.0 Z" fill="#2a78d6"/>
  <text x="745.9" y="497.5" font-size="12.5" font-weight="600" fill="#0b0b0b">19.31×</text>
  <text x="410.0" y="531.5" font-size="13" fill="#52514e" text-anchor="end">Raw transport throughput · relay</text>
  <path d="M420.0,517.0 L474.3,517.0 Q478.3,517.0 478.3,521.0 L478.3,533.0 Q478.3,537.0 474.3,537.0 L420.0,537.0 Z" fill="#2a78d6"/>
  <text x="486.3" y="531.5" font-size="12.5" font-weight="600" fill="#0b0b0b">3.54×</text>
  <text x="410.0" y="565.5" font-size="13" fill="#52514e" text-anchor="end">Transported resource throughput · relay</text>
  <path d="M420.0,551.0 L499.9,551.0 Q503.9,551.0 503.9,555.0 L503.9,567.0 Q503.9,571.0 499.9,571.0 L420.0,571.0 Z" fill="#2a78d6"/>
  <text x="511.9" y="565.5" font-size="12.5" font-weight="600" fill="#0b0b0b">5.09×</text>
  <text x="410.0" y="599.5" font-size="13" fill="#52514e" text-anchor="end">Transported resource throughput · matched RNS policy · relay</text>
  <path d="M420.0,585.0 L602.4,585.0 Q606.4,585.0 606.4,589.0 L606.4,601.0 Q606.4,605.0 602.4,605.0 L420.0,605.0 Z" fill="#2a78d6"/>
  <text x="614.4" y="599.5" font-size="12.5" font-weight="600" fill="#0b0b0b">11.32×</text>
  <line x1="420.0" y1="616.0" x2="818.0" y2="616.0" stroke="#c3c2b7" stroke-width="1"/>
</svg>
