<svg xmlns="http://www.w3.org/2000/svg" width="880" height="400" viewBox="0 0 880 400" role="img" font-family="system-ui, -apple-system, 'Segoe UI', sans-serif">
  <text x="8" y="17" font-size="12" fill="#c3c2b7">Median throughput as a multiple of RNS 1.5.4 · higher is better</text>
  <line x1="373.9" y1="34.0" x2="373.9" y2="378.0" stroke="#383835" stroke-width="1"/>
  <text x="373.9" y="394.0" font-size="11" fill="#898781" text-anchor="middle" font-variant-numeric="tabular-nums">1×</text>
  <line x1="441.1" y1="34.0" x2="441.1" y2="378.0" stroke="#2c2c2a" stroke-width="1"/>
  <text x="441.1" y="394.0" font-size="11" fill="#898781" text-anchor="middle" font-variant-numeric="tabular-nums">10×</text>
  <line x1="515.8" y1="34.0" x2="515.8" y2="378.0" stroke="#2c2c2a" stroke-width="1"/>
  <text x="515.8" y="394.0" font-size="11" fill="#898781" text-anchor="middle" font-variant-numeric="tabular-nums">20×</text>
  <line x1="590.5" y1="34.0" x2="590.5" y2="378.0" stroke="#2c2c2a" stroke-width="1"/>
  <text x="590.5" y="394.0" font-size="11" fill="#898781" text-anchor="middle" font-variant-numeric="tabular-nums">30×</text>
  <line x1="665.2" y1="34.0" x2="665.2" y2="378.0" stroke="#2c2c2a" stroke-width="1"/>
  <text x="665.2" y="394.0" font-size="11" fill="#898781" text-anchor="middle" font-variant-numeric="tabular-nums">40×</text>
  <line x1="739.9" y1="34.0" x2="739.9" y2="378.0" stroke="#2c2c2a" stroke-width="1"/>
  <text x="739.9" y="394.0" font-size="11" fill="#898781" text-anchor="middle" font-variant-numeric="tabular-nums">50×</text>
  <line x1="814.6" y1="34.0" x2="814.6" y2="378.0" stroke="#2c2c2a" stroke-width="1"/>
  <text x="814.6" y="394.0" font-size="11" fill="#898781" text-anchor="middle" font-variant-numeric="tabular-nums">60×</text>
  <line x1="366.4" y1="34.0" x2="366.4" y2="378.0" stroke="#383835" stroke-width="1"/>
  <text x="356.4" y="55.5" font-size="13" fill="#c3c2b7" text-anchor="end">Single-packet throughput</text>
  <path d="M366.4,41.0 L718.1,41.0 Q722.1,41.0 722.1,45.0 L722.1,57.0 Q722.1,61.0 718.1,61.0 L366.4,61.0 Z" fill="#3987e5"/>
  <text x="730.1" y="55.5" font-size="12.5" font-weight="600" fill="#ffffff">47.62×</text>
  <text x="356.4" y="89.5" font-size="13" fill="#c3c2b7" text-anchor="end">Link-message throughput</text>
  <path d="M366.4,75.0 L499.6,75.0 Q503.6,75.0 503.6,79.0 L503.6,91.0 Q503.6,95.0 499.6,95.0 L366.4,95.0 Z" fill="#3987e5"/>
  <text x="511.6" y="89.5" font-size="12.5" font-weight="600" fill="#ffffff">18.37×</text>
  <text x="356.4" y="123.5" font-size="13" fill="#c3c2b7" text-anchor="end">Request/response</text>
  <path d="M366.4,109.0 L814.0,109.0 Q818.0,109.0 818.0,113.0 L818.0,125.0 Q818.0,129.0 814.0,129.0 L366.4,129.0 Z" fill="#3987e5"/>
  <text x="826.0" y="123.5" font-size="12.5" font-weight="600" fill="#ffffff">60.46×</text>
  <text x="356.4" y="157.5" font-size="13" fill="#c3c2b7" text-anchor="end">Maximum resource segment</text>
  <path d="M366.4,143.0 L398.6,143.0 Q402.6,143.0 402.6,147.0 L402.6,159.0 Q402.6,163.0 398.6,163.0 L366.4,163.0 Z" fill="#3987e5"/>
  <text x="410.6" y="157.5" font-size="12.5" font-weight="600" fill="#ffffff">4.84×</text>
  <text x="356.4" y="191.5" font-size="13" fill="#c3c2b7" text-anchor="end">Maximum resource segment · matched RNS policy</text>
  <path d="M366.4,177.0 L399.7,177.0 Q403.7,177.0 403.7,181.0 L403.7,193.0 Q403.7,197.0 399.7,197.0 L366.4,197.0 Z" fill="#3987e5"/>
  <text x="411.7" y="191.5" font-size="12.5" font-weight="600" fill="#ffffff">4.99×</text>
  <text x="356.4" y="225.5" font-size="13" fill="#c3c2b7" text-anchor="end">64-segment resource stream</text>
  <path d="M366.4,211.0 L428.6,211.0 Q432.6,211.0 432.6,215.0 L432.6,227.0 Q432.6,231.0 428.6,231.0 L366.4,231.0 Z" fill="#3987e5"/>
  <text x="440.6" y="225.5" font-size="12.5" font-weight="600" fill="#ffffff">8.86×</text>
  <text x="356.4" y="259.5" font-size="13" fill="#c3c2b7" text-anchor="end">64-segment resource stream · matched RNS policy</text>
  <path d="M366.4,245.0 L434.6,245.0 Q438.6,245.0 438.6,249.0 L438.6,261.0 Q438.6,265.0 434.6,265.0 L366.4,265.0 Z" fill="#3987e5"/>
  <text x="446.6" y="259.5" font-size="12.5" font-weight="600" fill="#ffffff">9.67×</text>
  <text x="356.4" y="293.5" font-size="13" fill="#c3c2b7" text-anchor="end">Raw transport throughput</text>
  <path d="M366.4,279.0 L684.8,279.0 Q688.8,279.0 688.8,283.0 L688.8,295.0 Q688.8,299.0 684.8,299.0 L366.4,299.0 Z" fill="#3987e5"/>
  <text x="696.8" y="293.5" font-size="12.5" font-weight="600" fill="#ffffff">43.16×</text>
  <text x="356.4" y="327.5" font-size="13" fill="#c3c2b7" text-anchor="end">Transported resource throughput</text>
  <path d="M366.4,313.0 L370.0,313.0 Q374.0,313.0 374.0,317.0 L374.0,329.0 Q374.0,333.0 370.0,333.0 L366.4,333.0 Z" fill="#3987e5"/>
  <text x="382.0" y="327.5" font-size="12.5" font-weight="600" fill="#ffffff">1.02×</text>
  <text x="356.4" y="361.5" font-size="13" fill="#c3c2b7" text-anchor="end">Transported resource throughput · matched RNS policy</text>
  <path d="M366.4,347.0 L433.9,347.0 Q437.9,347.0 437.9,351.0 L437.9,363.0 Q437.9,367.0 433.9,367.0 L366.4,367.0 Z" fill="#3987e5"/>
  <text x="445.9" y="361.5" font-size="12.5" font-weight="600" fill="#ffffff">9.58×</text>
  <line x1="366.4" y1="378.0" x2="818.0" y2="378.0" stroke="#383835" stroke-width="1"/>
</svg>
